# xmcd
#
# Track frame offsets: 
#        150
#        2751
#        29376
#        53001
#        75426
#        105351
#        134226
#        159351
#        187851
#        223926
#        240951
#        263151
#        294801
#
# Disc length: 4214 seconds
#
# Revision: 1
# Processed by: cddbd v1.5.2PL0 Copyright (c) Steve Scherf et al.
# Submitted via: ExactAudioCopy v0.99pb4
#
DISCID=a010740d
DTITLE=Bruce Springsteen - CC Paramount Theatre Night, 4-22-05-Asbury 
DTITLE=Park(CD1)
DYEAR=2005
DGENRE=Rock and Roll
TTITLE0=Intro
TTITLE1=Reason To Believe
TTITLE2=Devils and Dust
TTITLE3=Youngstown
TTITLE4=Lonesome Day
TTITLE5=Long Time Comin'
TTITLE6=Silver Palomino
TTITLE7=For You
TTITLE8=Real World
TTITLE9=Part Man, Part Monkey
TTITLE10=Maria's Bed
TTITLE11=Highway Patrolman
TTITLE12=Reno
EXTD=
EXTT0=
EXTT1=
EXTT2=
EXTT3=
EXTT4=
EXTT5=
EXTT6=
EXTT7=
EXTT8=
EXTT9=
EXTT10=
EXTT11=
EXTT12=
PLAYORDER=
